<svg width="302" height="148" viewBox="0 0 302 148" fill="none" xmlns="http://www.w3.org/2000/svg">
<path d="M296.361 134.261C290.217 143.206 280.374 148 270.364 148C264.153 148 257.876 146.153 252.385 142.291L151.008 71.0861L49.6147 142.291C44.124 146.153 37.8466 148 31.6361 148C21.6256 148 11.7825 143.206 5.63896 134.261C-4.30455 119.759 -0.755684 99.8356 13.5904 89.7555L129.464 8.35211L133.231 5.70925C138.353 2.10074 144.178 0.254124 149.97 0.016945C150.389 0.016945 150.807 0 151.226 0H152.029C157.822 0.254121 163.63 2.10074 168.753 5.70925L172.586 8.40293L288.41 89.7555C302.756 99.8356 306.305 119.759 296.361 134.261Z" fill="#12140D"/>
</svg>
