<svg width="509" height="697" viewBox="0 0 509 697" fill="none" xmlns="http://www.w3.org/2000/svg">
<path d="M1.38319 562.396C1.38319 479.723 -1.40503 395.37 0.93588 312.073C3.11278 234.703 4.64853 155.357 56.7897 92.8279C57.2967 92.2337 57.7887 91.6394 58.2957 91.0452C97.3457 45.2441 152.201 13.6157 211.722 3.54334C227.557 0.869261 243.63 -0.304363 259.689 0.0670367C381.133 2.85997 485.192 98.5623 503.8 217.128C513.223 277.131 507.02 339.438 506.722 399.857C506.439 457.023 506.051 514.204 506.051 571.369V580.461C506.051 588.929 501.832 596.996 494.54 601.334C491.335 603.25 487.756 604.484 483.984 604.914C478.124 605.568 472.294 604.201 467.284 601.245C459.919 596.892 455.61 588.796 455.61 580.268V533.071C455.61 529.312 454.834 525.568 453.105 522.226C447.618 511.619 436.405 504.874 424.402 505.409C413.265 505.914 403.319 512.614 398.354 522.523C396.729 525.762 396.013 529.386 396.013 532.996V672.361C396.013 684.349 387.44 694.927 375.542 696.71C375.049 696.784 374.557 696.843 374.051 696.888C371.292 697.14 368.549 696.962 365.895 696.398C354.667 694.021 346.839 683.785 346.839 672.346V607.083C346.839 603.577 346.153 600.101 344.662 596.937C338.922 584.725 326.367 576.807 312.784 577.312C299.812 577.802 288.272 585.884 283.098 597.724C281.83 600.636 281.294 603.815 281.294 606.994V672.153C281.294 682.775 274.554 692.386 264.385 695.595C261.791 696.412 258.913 696.903 255.723 696.888C252.636 696.858 249.833 696.353 247.313 695.536C237.249 692.282 230.629 682.7 230.629 672.167V565.977C230.629 564.12 230.45 562.263 230.017 560.45C226.215 544.97 211.678 534.69 196.991 536.309C184.481 537.691 173.791 547.511 170.838 560.584C170.451 562.278 170.302 564.031 170.302 565.769V642.946C170.302 648.101 168.796 653.196 165.694 657.311C160.923 663.625 153.736 667.785 145.804 668.439C136.664 669.181 127.778 665.155 121.963 658.084C118.429 653.791 116.654 648.338 116.654 642.797V507.905C116.654 506.954 116.625 506.003 116.505 505.067C114.388 489.067 100.313 477.182 84.5378 477.777C69.6126 478.341 56.9389 489.959 54.9707 505.097C54.8514 506.018 54.8216 506.939 54.8216 507.86V562.916C54.8216 568.294 53.1815 573.613 49.8117 577.817C44.3099 584.68 35.7215 588.721 26.6412 588.157C16.8153 587.533 8.18227 581.62 3.85829 573.018C2.20325 569.72 1.44283 566.051 1.44283 562.367L1.38319 562.396Z" fill="#FCFC54"/>
</svg>
